<svg xmlns="http://www.w3.org/2000/svg" xmlns:xlink="http://www.w3.org/1999/xlink" width="553.712" height="237.167" viewBox="0 0 553.712 237.167">
  <defs>
    <filter id="Security_awareness_library_tool" x="165.212" y="192.5" width="379" height="44" filterUnits="userSpaceOnUse">
      <feOffset dy="2" input="SourceAlpha"/>
      <feGaussianBlur stdDeviation="1.5" result="blur"/>
      <feFlood flood-color="#a4a2a2"/>
      <feComposite operator="in" in2="blur"/>
      <feComposite in="SourceGraphic"/>
    </filter>
  </defs>
  <g id="Logo" transform="translate(649.712 -978)">
    <path id="Path_41" data-name="Path 41" d="M20.513,31.184,80.4,4.689l55.143,23.048,9.909,5.385v60.1L96.816,167.783l-18.791,9.66L57.562,165.38,23.313,128.546,18.1,98.21Z" transform="translate(-661.819 1030.834)" fill="#ffc627"/>
    <path id="Path_40" data-name="Path 40" d="M0,26.523,65,0V88H0Z" transform="translate(-646 1035)" fill="#395ab7"/>
    <path id="Path_38" data-name="Path 38" d="M0,0H65L46.931,51.823,0,88Z" transform="translate(-581 1123)" fill="#395ab7"/>
    <path id="blur-2" data-name="blur" d="M53.511,17.72l13.235,1.937L83.78,32.812l4.407,5.58L59.864,89.673,49.54,128.139,35.262,185.455l-6.9-1.68-5.559-7.76-9.265-4.7,6.617-30.165,8.206-40.681Z" transform="translate(-620.214 1023.722)" fill="#ffc627" opacity="0.12"/>
    <path id="Path_28" data-name="Path 28" d="M4.33,14.722c4.321.084,4.556-4.812,4.556-4.812H15.1s1.3-.008,1.652-.372a3.842,3.842,0,0,0,.712-1.486,8.99,8.99,0,0,0,.114-1.763V0h-1V6.428a3.674,3.674,0,0,1-.627,1.624c-.456.455-2.962.4-2.962.4H8.886A4.4,4.4,0,0,0,4.33,4.2C.189,4.266,0,9.162,0,9.162S-.178,14.53,4.33,14.722Zm0-9.248A3.394,3.394,0,0,1,7.885,9.162C7.91,11.454,6.8,13.4,4.33,13.4s-3.3-2.415-3.245-4.238S2.231,5.509,4.33,5.475Z" transform="translate(-604.907 1099.7) rotate(90)" stroke="#000" stroke-width="0.5"/>
    <path id="Path_30" data-name="Path 30" d="M4.33,0C8.651-.083,8.886,4.813,8.886,4.813H15.1s1.3.008,1.652.372a3.842,3.842,0,0,1,.712,1.486,8.991,8.991,0,0,1,.114,1.763v6.29h-1V8.3a3.674,3.674,0,0,0-.627-1.624C15.5,6.215,13,6.266,13,6.266H8.886A4.4,4.4,0,0,1,4.33,10.527C.189,10.457,0,5.561,0,5.561S-.178.194,4.33,0Zm0,9.248A3.394,3.394,0,0,0,7.885,5.561C7.91,3.27,6.8,1.324,4.33,1.324s-3.3,2.415-3.245,4.238S2.231,9.214,4.33,9.249Z" transform="translate(-619.631 1146.689) rotate(-90)" stroke="#000" stroke-width="0.5"/>
    <path id="Path_31" data-name="Path 31" d="M389.1,217.224a4.083,4.083,0,0,1,4.5,3.7h16.524v1.118H393.593s0,3.084-4.5,3.28a4.057,4.057,0,1,1,0-8.1Zm0,7.117c2.071.027,3.483-1.074,3.508-2.838s-1.067-3.261-3.508-3.261a3.054,3.054,0,1,0,0,6.1Z" transform="translate(-1015.327 901.871)" stroke="#000" stroke-width="1"/>
    <path id="Path_34" data-name="Path 34" d="M405.845,217.224a4.083,4.083,0,0,0-4.5,3.7H384.825v1.118h16.524s0,3.084,4.5,3.28a4.057,4.057,0,1,0,0-8.1Zm0,7.117c-2.071.027-3.483-1.074-3.508-2.838s1.067-3.261,3.508-3.261a3.054,3.054,0,1,1,0,6.1Z" transform="translate(-944.147 901.871)" stroke="#000" stroke-width="1"/>
    <path id="Path_35" data-name="Path 35" d="M4.33,0C8.651-.083,8.886,4.813,8.886,4.813H15.1s1.3.008,1.652.372a3.842,3.842,0,0,1,.712,1.486,8.99,8.99,0,0,1,.114,1.763v6.29h-1V8.3a3.674,3.674,0,0,0-.627-1.624C15.5,6.215,13,6.266,13,6.266H8.886A4.4,4.4,0,0,1,4.33,10.527C.189,10.457,0,5.561,0,5.561S-.178.194,4.33,0Zm0,9.248A3.394,3.394,0,0,0,7.885,5.561C7.91,3.27,6.8,1.324,4.33,1.324s-3.3,2.415-3.245,4.238S2.231,9.214,4.33,9.249Z" transform="translate(-544.901 1099.7) rotate(90)" stroke="#000" stroke-width="1"/>
    <path id="Path_36" data-name="Path 36" d="M4.33,14.722c4.321.084,4.556-4.812,4.556-4.812H15.1s1.3-.008,1.652-.372a3.842,3.842,0,0,0,.712-1.486,8.991,8.991,0,0,0,.114-1.763V0h-1V6.428a3.674,3.674,0,0,1-.627,1.624c-.456.455-2.962.4-2.962.4H8.886A4.4,4.4,0,0,0,4.33,4.2C.189,4.266,0,9.162,0,9.162S-.178,14.53,4.33,14.722Zm0-9.248A3.394,3.394,0,0,1,7.885,9.162C7.91,11.454,6.8,13.4,4.33,13.4s-3.3-2.415-3.245-4.238S2.231,5.509,4.33,5.475Z" transform="translate(-559.625 1146.689) rotate(-90)" stroke="#000" stroke-width="1"/>
    <path id="Path_37" data-name="Path 37" d="M232.28,219.683a2.191,2.191,0,0,0-2.418,1.4,2.469,2.469,0,0,0,.727,2.909.522.522,0,0,1,.208.482v3.118h0a1.124,1.124,0,0,0,1.676,1.045,1.1,1.1,0,0,0,.534-1.045h0v-3.118a.551.551,0,0,1,.237-.514,2.444,2.444,0,0,0-.964-4.275Z" transform="translate(-812.732 899.947)"/>
    <path id="lock" d="M180.945,92.337h-.539V83.126c0-10.215-6.45-15.335-14.377-15.335s-14.377,5.121-14.377,15.335a70.345,70.345,0,0,0,0,9.211c.264,2.1,1.706,1.135,2.124,1.135h1.51V83.126c0-7.642,4.812-10.758,10.743-10.758s10.783,3.117,10.783,10.758v9.211h-25.7c-2.6,0-4.713,2.727-4.713,6.072V123.7c0,3.345,2.117,6.072,4.713,6.072h29.813c2.6,0,4.713-2.727,4.713-6.072V98.409C185.638,95.064,183.541,92.337,180.945,92.337Zm1.078,31.338a1.258,1.258,0,0,1-1.078,1.389H151.113a1.258,1.258,0,0,1-1.078-1.389V98.384a1.258,1.258,0,0,1,1.078-1.389h29.813A1.258,1.258,0,0,1,182,98.384v25.292Z" transform="translate(-747.844 1011.927)"/>
    <path id="Icon_feather-shield" data-name="Icon feather-shield" d="M70.83,180.669s64.83-35.534,64.83-88.835V29.65L70.83,3,6,29.65V91.835C6,145.135,70.83,180.669,70.83,180.669Z" transform="translate(-652.212 1030.998)" fill="none" stroke="#000" stroke-linecap="round" stroke-linejoin="round" stroke-width="7"/>
    <text id="SALT" transform="translate(-492 1168)" fill="#fff" stroke="rgba(112,112,112,0.21)" stroke-width="1" font-size="175" font-family="SegoeUI, Segoe UI" letter-spacing="0.05em"><tspan x="0" y="0">SALT</tspan></text>
    <g transform="matrix(1, 0, 0, 1, -649.71, 978)" filter="url(#Security_awareness_library_tool)">
      <text id="Security_awareness_library_tool-2" data-name="Security awareness library tool" transform="translate(170.71 196)" fill="#fff" stroke="rgba(216,211,211,0.17)" stroke-width="1" font-size="25" font-family="SegoeUI, Segoe UI"><tspan x="0" y="27">Security</tspan><tspan y="27" font-family="STIXIntegralsD-Regular, STIXIntegralsD"> </tspan><tspan y="27">Awareness</tspan><tspan y="27" font-family="STIXIntegralsD-Regular, STIXIntegralsD"> </tspan><tspan y="27">Library</tspan><tspan y="27" font-family="STIXIntegralsD-Regular, STIXIntegralsD"> </tspan><tspan y="27">Tool</tspan></text>
    </g>
  </g>
</svg>
